<svg width="301" height="53" viewBox="0 0 301 53" version="1.1" xmlns="http://www.w3.org/2000/svg" xmlns:xlink="http://www.w3.org/1999/xlink">
<title>logo</title>
<desc>Created using Figma</desc>
<g id="Canvas" transform="translate(1621 -688)">
<g id="logo">
<use xlink:href="#path0_fill" transform="translate(-1620.66 688.124)" fill="#2F80ED"/>
<use xlink:href="#path1_fill" transform="translate(-1620.66 688.124)" fill="#2F80ED"/>
<use xlink:href="#path2_fill" transform="translate(-1620.66 688.124)" fill="#2F80ED"/>
<use xlink:href="#path3_fill" transform="translate(-1620.66 688.124)" fill="#2F80ED"/>
<use xlink:href="#path4_fill" transform="translate(-1620.66 688.124)" fill="#2F80ED"/>
<use xlink:href="#path5_fill" transform="translate(-1620.66 688.124)" fill="#2F80ED"/>
<use xlink:href="#path6_fill" transform="translate(-1620.66 688.124)" fill="#2F80ED"/>
<use xlink:href="#path7_fill" transform="translate(-1620.66 688.124)" fill="#2F80ED"/>
<use xlink:href="#path8_fill" transform="translate(-1620.66 688.124)" fill="#2F80ED"/>
</g>
</g>
<defs>
<path id="path0_fill" d="M 16.3391 48.6979C 11.3369 48.6979 7.36312 47.1277 4.41787 43.9873C 1.47262 40.8469 0 36.5123 0 30.9835C 0 25.4989 1.47262 21.1643 4.41787 17.9797C 7.40987 14.7951 11.3836 13.2028 16.3391 13.2028C 24.0529 13.2028 29.0317 16.5201 31.2757 23.1547L 22.5802 25.8749C 21.4115 22.9557 19.4012 21.4961 16.5495 21.4961C 14.3522 21.4961 12.5757 22.3586 11.22 24.0835C 9.91099 25.8085 9.25649 28.1085 9.25649 30.9835C 9.25649 33.8585 9.91099 36.1585 11.22 37.8835C 12.529 39.5643 14.2354 40.4046 16.3391 40.4046C 19.4714 40.4046 21.5751 38.7681 22.6504 35.495L 31.3458 37.9498C 29.1486 45.1152 24.1463 48.6979 16.3391 48.6979Z"/>
<path id="path1_fill" d="M 36.9471 47.9017L 36.9471 4.0471L 46.0633 0L 46.0633 47.9017L 36.9471 47.9017Z"/>
<path id="path2_fill" d="M 73.7654 47.9017L 73.7654 45.4469C 71.4747 47.6142 68.3892 48.6979 64.5089 48.6979C 60.6287 48.6979 57.4497 47.7248 54.9719 45.7786C 52.5409 43.8325 51.3254 41.0681 51.3254 37.4854C 51.3254 33.8143 52.7045 31.0278 55.4628 29.1258C 58.2678 27.2239 61.6338 26.273 65.5608 26.273C 68.693 26.273 71.4279 26.8037 73.7654 27.8653L 73.7654 26.1403C 73.7654 22.5576 71.6149 20.7663 67.3139 20.7663C 63.3869 20.7663 59.6937 21.8941 56.2342 24.1499L 53.4292 17.1836C 57.5899 14.5297 62.4753 13.2028 68.0853 13.2028C 70.002 13.2028 71.685 13.3576 73.1343 13.6672C 74.6303 13.9769 76.173 14.5519 77.7625 15.3922C 79.352 16.2326 80.5675 17.5817 81.409 19.4393C 82.2973 21.2528 82.7414 23.5307 82.7414 26.273L 82.7414 47.9017L 73.7654 47.9017ZM 66.262 41.1344C 69.1138 41.1344 71.6149 40.2056 73.7654 38.3479L 73.7654 34.6989C 71.8019 33.947 69.5813 33.571 67.1035 33.571C 65.0465 33.571 63.3869 33.9027 62.1247 34.5662C 60.8624 35.1854 60.2313 36.1585 60.2313 37.4854C 60.2313 38.5912 60.7455 39.4758 61.774 40.1392C 62.8493 40.8027 64.3453 41.1344 66.262 41.1344Z"/>
<path id="path3_fill" d="M 100.877 48.6979C 97.9784 48.6979 95.2202 48.145 92.6022 47.0392C 89.9842 45.9335 87.9739 44.4517 86.5714 42.594L 92.6022 37.7508C 95.1734 40.1835 97.9784 41.3998 101.017 41.3998C 104.617 41.3998 106.417 40.4046 106.417 38.4143C 106.417 37.4854 105.926 36.7335 104.944 36.1585C 104.009 35.5393 102.326 34.7873 99.8952 33.9027C 95.6409 32.5758 92.532 31.0941 90.5685 29.4576C 88.605 27.7768 87.6233 25.5432 87.6233 22.7566C 87.6233 19.7932 88.8622 17.4711 91.3399 15.7903C 93.8177 14.0653 96.9265 13.2028 100.667 13.2028C 106.09 13.2028 110.461 15.0163 113.78 18.6432L 107.679 23.3537C 105.529 21.4518 103.191 20.5009 100.667 20.5009C 97.6278 20.5009 96.1084 21.3413 96.1084 23.022C 96.1084 24.4374 98.4459 25.8085 103.121 27.1355C 106.861 28.2855 109.759 29.7008 111.816 31.3816C 113.873 33.0181 114.902 35.3623 114.902 38.4143C 114.902 41.6873 113.64 44.2306 111.115 46.044C 108.591 47.8133 105.178 48.6979 100.877 48.6979Z"/>
<path id="path4_fill" d="M 132.022 48.6979C 129.124 48.6979 126.365 48.145 123.747 47.0392C 121.13 45.9335 119.119 44.4517 117.717 42.594L 123.747 37.7508C 126.319 40.1835 129.124 41.3998 132.162 41.3998C 135.762 41.3998 137.562 40.4046 137.562 38.4143C 137.562 37.4854 137.071 36.7335 136.089 36.1585C 135.154 35.5393 133.471 34.7873 131.04 33.9027C 126.786 32.5758 123.677 31.0941 121.714 29.4576C 119.75 27.7768 118.769 25.5432 118.769 22.7566C 118.769 19.7932 120.008 17.4711 122.485 15.7903C 124.963 14.0653 128.072 13.2028 131.812 13.2028C 137.235 13.2028 141.606 15.0163 144.925 18.6432L 138.824 23.3537C 136.674 21.4518 134.336 20.5009 131.812 20.5009C 128.773 20.5009 127.254 21.3413 127.254 23.022C 127.254 24.4374 129.591 25.8085 134.266 27.1355C 138.006 28.2855 140.905 29.7008 142.962 31.3816C 145.019 33.0181 146.047 35.3623 146.047 38.4143C 146.047 41.6873 144.785 44.2306 142.26 46.044C 139.736 47.8133 136.323 48.6979 132.022 48.6979Z"/>
<path id="path5_fill" d="M 151.316 47.9017L 151.316 13.999L 160.433 13.999L 160.433 16.9845C 161.695 14.4634 163.916 13.2028 167.095 13.2028C 169.759 13.2028 172.19 14.0653 174.388 15.7903L 173.125 23.6855C 171.162 22.3586 168.988 21.6951 166.604 21.6951C 162.49 21.6951 160.433 24.1278 160.433 28.9931L 160.433 47.9017L 151.316 47.9017Z"/>
<path id="path6_fill" d="M 202.949 43.9873C 200.004 47.1277 195.983 48.6979 190.888 48.6979C 188.115 48.6979 179.711 52.7522 179.711 52.7522C 179.711 52.7522 180.169 45.4189 178.826 43.9873C 175.881 40.8469 174.408 36.5123 174.408 30.9835C 174.408 25.4989 175.881 21.1643 178.826 17.9797C 181.818 14.7951 185.839 13.2028 190.888 13.2028C 195.937 13.2028 199.934 14.7951 202.879 17.9797C 205.871 21.1643 207.367 25.4989 207.367 30.9835C 207.367 36.5123 205.894 40.8469 202.949 43.9873ZM 190.888 40.4046C 193.178 40.4046 194.978 39.5864 196.287 37.9498C 197.596 36.2691 198.251 33.947 198.251 30.9835C 198.251 28.0201 197.596 25.698 196.287 24.0172C 194.978 22.3364 193.178 21.4961 190.888 21.4961C 188.644 21.4961 186.844 22.3586 185.488 24.0835C 184.179 25.7643 183.525 28.0643 183.525 30.9835C 183.525 33.9027 184.179 36.2027 185.488 37.8835C 186.844 39.5643 188.644 40.4046 190.888 40.4046Z"/>
<path id="path7_fill" d="M 291.21 47.9017L 291.21 29.3912C 291.21 26.6047 290.766 24.5922 289.878 23.3537C 288.99 22.1153 287.54 21.4961 285.53 21.4961C 283.38 21.4961 281.79 22.1153 280.762 23.3537C 279.78 24.5922 279.289 26.5826 279.289 29.3249L 279.289 47.9017L 270.173 47.9017L 270.173 29.3912C 270.173 26.6047 269.729 24.5922 268.84 23.3537C 267.952 22.1153 266.503 21.4961 264.493 21.4961C 262.342 21.4961 260.753 22.1153 259.724 23.3537C 258.742 24.5922 258.251 26.5826 258.251 29.3249L 258.251 47.9017L 249.135 47.9017L 249.135 13.999L 258.251 13.999L 258.251 17.1172C 260.402 14.5076 263.23 13.2028 266.737 13.2028C 271.131 13.2028 274.193 14.7951 275.923 17.9797C 278.307 14.7951 281.977 13.2028 286.933 13.2028C 295.862 13.2028 300.326 17.6701 300.326 26.6047L 300.326 47.9017L 291.21 47.9017Z"/>
<path id="path8_fill" d="M 215.837 43.9874C 218.782 47.1277 222.802 48.6979 227.898 48.6979C 230.671 48.6979 239.075 52.7523 239.075 52.7523C 239.075 52.7523 238.617 45.419 239.96 43.9874C 242.905 40.847 244.377 36.5124 244.377 30.9836C 244.377 25.499 242.905 21.1644 239.96 17.9798C 236.968 14.7952 232.947 13.2029 227.898 13.2029C 222.849 13.2029 218.852 14.7952 215.907 17.9798C 212.915 21.1644 211.419 25.499 211.419 30.9836C 211.419 36.5124 212.891 40.847 215.837 43.9874ZM 227.898 40.4047C 225.607 40.4047 223.808 39.5864 222.499 37.9499C 221.19 36.2691 220.535 33.947 220.535 30.9836C 220.535 28.0201 221.19 25.698 222.499 24.0173C 223.808 22.3365 225.607 21.4961 227.898 21.4961C 230.142 21.4961 231.942 22.3586 233.298 24.0836C 234.607 25.7644 235.261 28.0644 235.261 30.9836C 235.261 33.9028 234.607 36.2028 233.298 37.8835C 231.942 39.5643 230.142 40.4047 227.898 40.4047Z"/>
</defs>
</svg>
